<?xml version="1.0" standalone="no"?>
<!DOCTYPE svg PUBLIC "-//W3C//DTD SVG 20010904//EN"
 "http://www.w3.org/TR/2001/REC-SVG-20010904/DTD/svg10.dtd">
<svg version="1.0" xmlns="http://www.w3.org/2000/svg"
 width="500.000000pt" height="88.000000pt" viewBox="0 0 500.000000 88.000000"
 preserveAspectRatio="xMidYMid meet">

<g transform="translate(0.000000,88.000000) scale(0.100000,-0.100000)"
fill="#000000" stroke="none">
<path d="M4860 800 c0 -11 7 -20 15 -20 8 0 15 9 15 20 0 11 -7 20 -15 20 -8
0 -15 -9 -15 -20z"/>
<path d="M4640 765 c0 -33 2 -35 35 -35 33 0 35 2 35 35 0 33 -2 35 -35 35
-33 0 -35 -2 -35 -35z"/>
<path d="M4752 708 c2 -15 11 -24 26 -26 18 -3 22 1 22 22 0 21 -5 26 -26 26
-21 0 -25 -4 -22 -22z"/>
<path d="M4570 686 c0 -29 4 -34 29 -39 28 -6 29 -8 36 -87 6 -66 12 -87 33
-112 22 -26 23 -31 10 -39 -22 -12 -36 -54 -43 -132 -6 -64 -9 -69 -36 -79
-24 -8 -29 -15 -29 -44 0 -32 2 -34 35 -34 82 0 115 45 115 158 0 63 12 89 46
102 19 8 24 17 24 45 0 28 -4 35 -19 35 -25 0 -51 37 -51 72 0 18 -5 28 -15
28 -9 0 -15 9 -15 25 0 16 6 25 15 25 12 0 14 7 9 28 -15 62 -42 82 -110 82
-32 0 -34 -2 -34 -34z m110 -21 c0 -8 -7 -15 -15 -15 -8 0 -15 7 -15 15 0 8 7
15 15 15 8 0 15 -7 15 -15z"/>
<path d="M746 688 c-9 -12 -16 -31 -16 -41 0 -17 -10 -18 -164 -15 -128 2
-162 0 -159 -9 3 -8 -2 -13 -12 -13 -11 0 -15 5 -11 15 3 8 1 15 -5 15 -6 0
-9 -8 -7 -17 3 -15 21 -16 181 -14 l177 2 0 -50 0 -51 -88 0 c-51 0 -93 5 -99
11 -14 14 -33 3 -33 -17 0 -19 28 -30 43 -15 6 6 46 11 94 11 l83 0 0 -55 0
-55 -264 0 c-222 0 -266 2 -276 15 -26 31 -70 11 -70 -32 0 -33 35 -49 66 -29
20 14 60 16 281 14 l258 -3 3 -50 3 -50 -28 27 c-27 25 -33 26 -163 30 -113 2
-135 1 -135 -12 0 -12 22 -14 134 -11 l133 3 29 -28 c20 -19 29 -38 29 -59 0
-17 7 -41 16 -53 l15 -22 418 0 c392 0 419 1 434 18 39 43 9 89 -63 94 -33 2
-46 8 -48 20 -3 16 8 18 118 18 145 0 179 13 180 66 0 41 -29 53 -135 56 -86
3 -100 5 -103 21 -3 15 5 17 55 17 70 0 103 19 103 59 0 50 -24 60 -145 63
-90 2 -110 6 -110 18 0 13 31 15 212 18 l212 2 20 26 c19 25 19 45 -2 72 -14
18 -801 18 -795 0 4 -10 94 -14 389 -18 332 -4 384 -7 384 -20 0 -13 -31 -15
-212 -18 l-212 -2 -20 -27 c-27 -33 -26 -39 4 -68 23 -23 31 -25 130 -25 98 0
105 -1 105 -20 0 -18 -7 -20 -60 -20 -47 0 -64 -4 -80 -20 -27 -27 -25 -55 6
-79 23 -18 41 -21 121 -21 85 0 94 -2 91 -17 -3 -16 -20 -19 -138 -23 -74 -3
-141 -9 -147 -13 -17 -11 -17 -72 0 -85 7 -6 35 -12 62 -14 42 -3 50 -6 50
-23 0 -20 -8 -20 -385 -23 -212 -1 -395 0 -407 3 -23 5 -23 6 -23 205 l0 200
231 0 c214 0 230 1 227 18 -3 15 -23 17 -231 20 l-228 2 3 33 3 32 148 3 c122
2 147 5 147 17 0 13 -25 15 -154 15 -149 0 -155 -1 -170 -22z m-306 -388 c0
-5 -7 -10 -15 -10 -8 0 -15 5 -15 10 0 6 7 10 15 10 8 0 15 -4 15 -10z"/>
<path d="M2070 640 c0 -11 7 -20 15 -20 22 0 22 -258 0 -266 -8 -4 -15 -12
-15 -20 0 -11 17 -14 70 -14 63 0 70 2 70 20 0 13 -7 20 -20 20 -17 0 -20 7
-20 49 0 28 4 52 9 55 15 10 39 -4 44 -26 11 -40 32 -13 35 45 3 52 1 57 -18
57 -13 0 -20 -7 -20 -20 0 -15 -7 -20 -25 -20 -23 0 -25 4 -25 44 0 67 6 76
52 76 35 0 41 -4 51 -30 18 -48 37 -38 37 20 l0 50 -120 0 c-113 0 -120 -1
-120 -20z"/>
<path d="M3660 641 c0 -12 6 -21 15 -21 13 0 15 -21 15 -130 0 -107 -3 -132
-15 -136 -8 -4 -15 -12 -15 -20 0 -11 20 -14 93 -14 152 1 217 47 224 159 3
44 -1 64 -19 95 -35 59 -83 80 -200 84 -94 4 -98 4 -98 -17z m209 -49 c33 -33
46 -96 31 -153 -15 -55 -44 -79 -97 -79 l-43 0 0 123 c0 68 3 127 7 130 17 18
76 6 102 -21z"/>
<path d="M802 639 c2 -6 8 -10 13 -10 5 0 11 4 13 10 2 6 -4 11 -13 11 -9 0
-15 -5 -13 -11z"/>
<path d="M862 639 c2 -6 8 -10 13 -10 5 0 11 4 13 10 2 6 -4 11 -13 11 -9 0
-15 -5 -13 -11z"/>
<path d="M922 639 c2 -6 8 -10 13 -10 5 0 11 4 13 10 2 6 -4 11 -13 11 -9 0
-15 -5 -13 -11z"/>
<path d="M4752 603 c2 -10 10 -18 18 -18 8 0 16 8 18 18 2 12 -3 17 -18 17
-15 0 -20 -5 -18 -17z"/>
<path d="M1282 597 c-18 -21 -5 -27 55 -27 46 0 54 3 51 18 -4 22 -89 30 -106
9z"/>
<path d="M2402 553 c-42 -21 -62 -59 -62 -121 0 -61 25 -97 79 -113 45 -13 98
0 126 31 23 26 10 45 -18 25 -50 -35 -117 -8 -117 48 0 27 0 27 75 27 69 0 75
2 75 20 0 37 -28 77 -61 89 -42 15 -58 14 -97 -6z m88 -42 c15 -30 14 -31 -35
-31 -25 0 -45 3 -45 6 0 20 24 44 45 44 14 0 29 -8 35 -19z"/>
<path d="M2723 550 c-27 -16 -33 -17 -33 -5 0 17 -8 18 -62 9 -41 -7 -52 -32
-18 -41 17 -5 20 -14 20 -67 0 -39 -5 -69 -15 -82 -27 -36 -19 -44 45 -44 53
0 60 2 60 20 0 11 -7 20 -15 20 -23 0 -21 111 3 141 18 21 20 21 42 6 12 -8
29 -13 36 -10 19 7 18 59 -2 67 -23 9 -26 8 -61 -14z"/>
<path d="M2953 555 c-20 -8 -33 -10 -35 -3 -6 16 -98 -1 -98 -19 0 -8 9 -17
20 -20 17 -5 20 -14 20 -67 0 -39 -5 -69 -15 -82 -27 -36 -19 -44 45 -44 53 0
60 2 60 20 0 11 -7 20 -15 20 -23 0 -22 145 1 154 33 12 55 6 64 -20 15 -40
12 -120 -5 -134 -32 -27 -17 -40 45 -40 53 0 60 2 60 20 0 11 -7 20 -15 20
-12 0 -15 16 -15 80 0 73 -3 83 -25 105 -27 28 -46 30 -92 10z"/>
<path d="M3205 560 c-64 -26 -95 -123 -60 -189 32 -63 124 -77 182 -27 32 28
24 55 -10 31 -33 -23 -83 -19 -101 7 -9 12 -16 33 -16 45 0 22 4 23 75 23 74
0 75 0 75 26 0 38 -18 64 -55 80 -38 16 -60 17 -90 4z m73 -42 c25 -25 13 -38
-33 -38 -49 0 -50 1 -35 31 12 21 50 25 68 7z"/>
<path d="M4082 553 c-42 -21 -62 -59 -62 -121 0 -61 25 -97 79 -113 45 -13 98
0 126 31 23 26 10 45 -18 25 -50 -35 -117 -8 -117 48 0 27 0 27 75 27 69 0 75
2 75 20 0 37 -28 77 -61 89 -42 15 -58 14 -97 -6z m88 -42 c15 -30 14 -31 -35
-31 -25 0 -45 3 -45 6 0 20 24 44 45 44 14 0 29 -8 35 -19z"/>
<path d="M1830 540 c-23 -23 -25 -49 -6 -75 10 -13 30 -20 74 -23 55 -4 63 -2
87 22 19 19 24 32 20 49 -11 35 -35 47 -97 47 -45 0 -63 -5 -78 -20z m135 -40
c0 -12 -13 -15 -55 -15 -45 0 -55 3 -58 18 -3 16 3 18 55 15 44 -2 58 -7 58
-18z"/>
<path d="M3370 545 c0 -7 6 -18 13 -22 18 -12 107 -199 107 -226 0 -13 -7 -32
-15 -43 -12 -15 -16 -16 -24 -6 -12 19 -45 11 -49 -11 -5 -24 16 -47 42 -47
37 0 62 39 112 179 26 74 56 141 66 150 31 27 22 41 -27 41 -38 0 -45 -3 -45
-19 0 -11 5 -21 10 -23 6 -2 2 -29 -12 -68 l-22 -65 -23 55 c-17 38 -23 64
-18 87 l6 33 -61 0 c-46 0 -60 -3 -60 -15z"/>
<path d="M4260 540 c0 -11 4 -20 8 -20 5 0 28 -45 52 -100 37 -82 48 -100 66
-100 18 0 27 13 49 68 14 37 37 87 51 111 13 24 24 47 24 52 0 5 -20 9 -45 9
-33 0 -45 -4 -45 -15 0 -7 6 -18 13 -22 10 -6 8 -20 -9 -68 l-22 -60 -22 50
c-15 34 -19 60 -15 82 l6 33 -56 0 c-48 0 -55 -2 -55 -20z"/>
<path d="M826 479 c-20 -17 -36 -36 -36 -43 0 -15 62 -76 78 -76 19 0 14 31
-8 55 l-20 22 20 18 c11 10 20 24 20 31 0 26 -20 24 -54 -7z"/>
<path d="M1135 501 c-9 -16 3 -31 26 -31 14 0 19 6 17 17 -4 20 -33 29 -43 14z"/>
<path d="M930 448 c-29 -52 -38 -88 -22 -88 19 0 82 101 82 130 0 27 -33 4
-60 -42z"/>
<path d="M1000 492 c0 -5 11 -19 25 -32 l25 -24 -27 -28 c-21 -22 -24 -31 -15
-40 9 -9 20 -4 47 22 19 19 35 38 35 44 0 17 -53 66 -72 66 -10 0 -18 -4 -18
-8z"/>
<path d="M1207 494 c-17 -17 11 -24 94 -24 72 0 89 3 89 15 0 12 -16 15 -88
15 -49 0 -92 -3 -95 -6z"/>
<path d="M1132 403 c3 -15 17 -18 87 -21 80 -3 118 8 105 29 -3 5 -48 9 -100
9 -86 0 -95 -2 -92 -17z"/>
<path d="M1354 409 c-10 -16 15 -29 57 -29 35 0 66 20 52 33 -11 11 -101 8
-109 -4z"/>
<path d="M852 313 c3 -16 19 -18 163 -18 144 0 160 2 163 18 3 16 -10 17 -163
17 -153 0 -166 -1 -163 -17z"/>
<path d="M1215 320 c-14 -23 13 -31 91 -28 62 2 79 6 79 18 0 12 -17 16 -82
18 -52 2 -84 -1 -88 -8z"/>
<path d="M857 244 c-4 -4 -7 -14 -7 -21 0 -11 15 -13 63 -11 47 2 62 7 62 18
0 11 -14 16 -55 18 -31 2 -59 0 -63 -4z"/>
<path d="M1005 241 c-12 -20 6 -31 46 -31 33 0 40 3 37 18 -4 20 -72 30 -83
13z"/>
<path d="M1110 230 c0 -20 5 -20 138 -18 114 3 137 6 137 18 0 12 -23 15 -137
18 -133 2 -138 2 -138 -18z"/>
<path d="M1708 229 c-25 -14 -24 -75 1 -89 34 -18 126 -12 144 8 21 23 22 56
1 76 -18 18 -118 22 -146 5z m117 -44 c0 -16 -8 -21 -38 -23 -46 -4 -73 13
-55 35 7 9 26 13 52 11 33 -2 41 -7 41 -23z"/>
</g>
</svg>
